<svg width="21" height="16" viewBox="0 0 21 16" xmlns="http://www.w3.org/2000/svg">
    <g fill="none" fill-rule="evenodd">
        <path d="M19.255.25c.751 0 1.36.609 1.36 1.36v12.78a1.36 1.36 0 0 1-1.36 1.36H1.735a1.36 1.36 0 0 1-1.36-1.36V1.61C.375.859.984.25 1.735.25zm0 .75H1.735a.61.61 0 0 0-.62.61v12.78a.61.61 0 0 0 .62.61h17.52a.61.61 0 0 0 .62-.61V1.61a.61.61 0 0 0-.62-.61z" fill="#000" fill-rule="nonzero"/>
        <path d="M10.13 12.415c-1.205-1.036-2.82-1.711-4.5-2.226V3.263c1.569.58 3.547 1.725 4.5 2.642v6.51zM4.88 2.25v1.848a14.19 14.19 0 0 0-2 .151v8.5c.95-.138 1.792-.212 2.58-.212 1.74 0 3.223.364 5.045 1.212-1.77-1.546-3.564-1.962-5.045-1.962-.567 0-1.162.035-1.83.11V4.91c.404-.04.824-.056 1.25-.06v5.9c1.915.537 4.17 1.425 5.625 3v-8.5c-.778-.835-3.71-2.557-5.625-3z" fill="#000"/>
        <path d="M15.38 10.188c-1.68.515-3.295 1.19-4.5 2.227V5.907c.954-.918 2.932-2.063 4.5-2.643v6.924zm.75-6.09V2.251c-1.915.442-4.847 2.164-5.625 3v8.5-.002c1.456-1.575 3.71-2.462 5.625-2.998V4.85c.426.004.847.02 1.25.06v6.986a16.49 16.49 0 0 0-1.83-.109c-1.481 0-3.276.415-5.045 1.963 1.822-.848 3.304-1.213 5.045-1.213.788 0 1.63.074 2.58.213v-8.5a14.03 14.03 0 0 0-2-.152z" fill="#949494"/>
    </g>
</svg>
