<svg xmlns="http://www.w3.org/2000/svg" width="30" height="30" viewBox="0 0 30 30">
    <g fill="none" fill-rule="evenodd">
        <g>
            <g>
                <g>
                    <g>
                        <path d="M0 0L30 0 30 30 0 30z" transform="translate(-1051 -439) translate(1011 413) translate(40 26) rotate(90 15 15)"/>
                        <path fill="#177991" fill-rule="nonzero" d="M5 7.5H2.5V25c0 1.375 1.125 2.5 2.5 2.5h17.5V25H5V7.5zm20-5H10C8.625 2.5 7.5 3.625 7.5 5v15c0 1.375 1.125 2.5 2.5 2.5h15c1.375 0 2.5-1.125 2.5-2.5V5c0-1.375-1.125-2.5-2.5-2.5zm-1.25 11.25h-5v5h-2.5v-5h-5v-2.5h5v-5h2.5v5h5v2.5z" opacity=".75" transform="translate(-1051 -439) translate(1011 413) translate(40 26) rotate(90 15 15)"/>
                    </g>
                </g>
            </g>
        </g>
    </g>
</svg>
