<svg xmlns="http://www.w3.org/2000/svg" width="30" height="30" viewBox="0 0 30 30">
    <g fill="none" fill-rule="evenodd">
        <g>
            <g>
                <g>
                    <path d="M0 0H30V30H0z" transform="translate(-1469 -236) translate(1469 130) translate(0 106)"/>
                    <path fill="#177991" fill-rule="nonzero" d="M23.75 3.75H6.25c-1.375 0-2.5 1.125-2.5 2.5v17.5c0 1.375 1.125 2.5 2.5 2.5h17.5c1.375 0 2.5-1.125 2.5-2.5V6.25c0-1.375-1.125-2.5-2.5-2.5zM15.012 22.5c-.875 0-1.575-.7-1.575-1.575 0-.887.7-1.563 1.575-1.563.888 0 1.563.676 1.563 1.563-.012.863-.675 1.575-1.563 1.575zm3.763-9.25c-.95 1.387-1.85 1.825-2.337 2.713-.2.362-.275.6-.275 1.762h-2.276c0-.613-.1-1.613.388-2.475.612-1.088 1.775-1.738 2.45-2.7.712-1.013.313-2.913-1.713-2.913-1.325 0-1.975 1-2.25 1.85l-2.062-.874c.563-1.675 2.075-3.113 4.288-3.113 1.85 0 3.112.838 3.762 1.9.55.9.875 2.588.025 3.85z" transform="translate(-1469 -236) translate(1469 130) translate(0 106)"/>
                </g>
            </g>
        </g>
    </g>
</svg>
