<?xml version="1.0" encoding="UTF-8"?>
<!DOCTYPE svg PUBLIC "-//W3C//DTD SVG 1.1//EN" "http://www.w3.org/Graphics/SVG/1.1/DTD/svg11.dtd">
<svg version="1.1" xmlns="http://www.w3.org/2000/svg" xmlns:xlink="http://www.w3.org/1999/xlink" x="0" y="0" width="30" height="30" viewBox="0, 0, 30, 30">
  <g id="Layer_1" transform="translate(-220, -192.333)">
    <g>
      <g>
        <path d="M225.628,194.333 L244.372,194.333 C246.376,194.333 248,195.885 248,197.8 L248,216.867 C248,218.781 246.376,220.333 244.372,220.333 L225.628,220.333 C223.624,220.333 222,218.781 222,216.867 L222,197.8 C222,195.885 223.624,194.333 225.628,194.333 z" fill="#5895A7"/>
        <path d="M242.256,202.558 L241.047,202.558 L241.047,200.435 C241.047,197.506 238.338,195.129 235,195.129 C231.662,195.129 228.953,197.506 228.953,200.435 L228.953,202.558 L227.744,202.558 C226.414,202.558 225.326,203.513 225.326,204.68 L225.326,215.293 C225.326,216.46 226.414,217.415 227.744,217.415 L242.256,217.415 C243.586,217.415 244.674,216.46 244.674,215.293 L244.674,204.68 C244.674,203.513 243.586,202.558 242.256,202.558 z M235,197.146 C237.068,197.146 238.749,198.621 238.749,200.435 L238.749,202.558 L231.372,202.558 L231.372,200.435 L231.251,200.435 C231.251,198.621 232.932,197.146 235,197.146 z M242.256,215.293 L227.744,215.293 L227.744,204.68 L242.256,204.68 L242.256,215.293 z M235,212.109 C236.33,212.109 237.419,211.154 237.419,209.986 C237.419,208.819 236.33,207.864 235,207.864 C233.67,207.864 232.581,208.819 232.581,209.986 C232.581,211.154 233.67,212.109 235,212.109 z M235,212.109" fill="#FFFFFF" id="Layer_1"/>
      </g>
    </g>
  </g>
</svg>
