<?xml version="1.0" encoding="UTF-8"?>
<!DOCTYPE svg PUBLIC "-//W3C//DTD SVG 1.1//EN" "http://www.w3.org/Graphics/SVG/1.1/DTD/svg11.dtd">
<svg version="1.1" xmlns="http://www.w3.org/2000/svg" xmlns:xlink="http://www.w3.org/1999/xlink" x="0" y="0" width="30" height="30" viewBox="0, 0, 30, 30">
  <g id="Layer_1" transform="translate(-355, -192.333)">
    <g>
      <g>
        <path d="M360.628,194.333 L379.372,194.333 C381.376,194.333 383,195.885 383,197.8 L383,216.867 C383,218.781 381.376,220.333 379.372,220.333 L360.628,220.333 C358.624,220.333 357,218.781 357,216.867 L357,197.8 C357,195.885 358.624,194.333 360.628,194.333 z" fill="#177991"/>
        <path d="M377.256,202.558 L376.047,202.558 L376.047,200.435 C376.047,197.506 373.338,195.129 370,195.129 C366.662,195.129 363.953,197.506 363.953,200.435 L363.953,202.558 L362.744,202.558 C361.414,202.558 360.326,203.513 360.326,204.68 L360.326,215.293 C360.326,216.46 361.414,217.415 362.744,217.415 L377.256,217.415 C378.586,217.415 379.674,216.46 379.674,215.293 L379.674,204.68 C379.674,203.513 378.586,202.558 377.256,202.558 z M370,197.146 C372.068,197.146 373.749,198.621 373.749,200.435 L373.749,202.558 L366.372,202.558 L366.372,200.435 L366.251,200.435 C366.251,198.621 367.932,197.146 370,197.146 z M377.256,215.293 L362.744,215.293 L362.744,204.68 L377.256,204.68 L377.256,215.293 z M370,212.109 C371.33,212.109 372.419,211.154 372.419,209.986 C372.419,208.819 371.33,207.864 370,207.864 C368.67,207.864 367.581,208.819 367.581,209.986 C367.581,211.154 368.67,212.109 370,212.109 z M370,212.109" fill="#FFFFFF" id="Layer_1"/>
      </g>
    </g>
  </g>
</svg>
