<svg xmlns="http://www.w3.org/2000/svg" width="30" height="30" viewBox="0 0 30 30">
    <g fill="none" fill-rule="evenodd">
        <g>
            <g>
                <g>
                    <path d="M0 0L30 0 30 30 0 30z" transform="translate(-182 -818) translate(170 702) translate(12 116)"/>
                    <path fill="#177991" fill-rule="nonzero" d="M16.25 3.75C10.037 3.75 5 8.787 5 15H1.25l4.862 4.863.088.175L11.25 15H7.5c0-4.838 3.912-8.75 8.75-8.75C21.087 6.25 25 10.162 25 15c0 4.837-3.913 8.75-8.75 8.75-2.412 0-4.6-.988-6.175-2.575L8.3 22.95c2.037 2.038 4.837 3.3 7.95 3.3 6.212 0 11.25-5.038 11.25-11.25 0-6.213-5.038-11.25-11.25-11.25zM15 10v6.25l5.35 3.175.9-1.512-4.375-2.6V10H15z" opacity=".75" transform="translate(-182 -818) translate(170 702) translate(12 116)"/>
                </g>
            </g>
        </g>
    </g>
</svg>
