<svg xmlns="http://www.w3.org/2000/svg" width="30" height="30" viewBox="0 0 30 30">
    <g fill="none" fill-rule="evenodd">
        <g>
            <g>
                <g>
                    <path d="M0 0L30 0 30 30 0 30z" transform="translate(-1091 -479) translate(1011 413) translate(80 66)"/>
                    <path fill="#177991" fill-rule="nonzero" d="M23.75 3.75H6.25c-1.388 0-2.5 1.125-2.5 2.5v17.5c0 1.375 1.112 2.5 2.5 2.5h17.5c1.387 0 2.5-1.125 2.5-2.5V6.25c0-1.375-1.113-2.5-2.5-2.5zM12.5 21.25L6.25 15l1.762-1.762 4.488 4.474 9.488-9.487L23.75 10 12.5 21.25z" transform="translate(-1091 -479) translate(1011 413) translate(80 66)"/>
                </g>
            </g>
        </g>
    </g>
</svg>
