<?xml version="1.0" encoding="UTF-8"?>
<!DOCTYPE svg PUBLIC "-//W3C//DTD SVG 1.1//EN" "http://www.w3.org/Graphics/SVG/1.1/DTD/svg11.dtd">
<svg version="1.1" xmlns="http://www.w3.org/2000/svg" xmlns:xlink="http://www.w3.org/1999/xlink" x="0" y="0" width="30" height="30" viewBox="0, 0, 30, 30">
  <g id="Layer_1" transform="translate(-263, -192.333)">
    <g>
      <g>
        <path d="M268.628,194.333 L287.372,194.333 C289.376,194.333 291,195.885 291,197.8 L291,216.867 C291,218.781 289.376,220.333 287.372,220.333 L268.628,220.333 C266.624,220.333 265,218.781 265,216.867 L265,197.8 C265,195.885 266.624,194.333 268.628,194.333 z" fill="#5895A7"/>
        <path d="M278,213.17 C279.33,213.17 280.419,212.215 280.419,211.048 C280.419,209.88 279.33,208.925 278,208.925 C276.67,208.925 275.581,209.88 275.581,211.048 C275.581,212.215 276.67,213.17 278,213.17 z M285.256,203.619 L284.047,203.619 L284.047,201.497 C284.047,198.568 281.338,196.19 278,196.19 C274.662,196.19 271.953,198.568 271.953,201.497 L274.251,201.497 C274.251,199.682 275.932,198.207 278,198.207 C280.068,198.207 281.749,199.682 281.749,201.497 L281.749,203.619 L270.744,203.619 C269.414,203.619 268.326,204.574 268.326,205.742 L268.326,216.354 C268.326,217.521 269.414,218.476 270.744,218.476 L285.256,218.476 C286.586,218.476 287.674,217.521 287.674,216.354 L287.674,205.742 C287.674,204.574 286.586,203.619 285.256,203.619 z M285.256,216.354 L270.744,216.354 L270.744,205.742 L285.256,205.742 L285.256,216.354 z M285.256,216.354" fill="#FFFFFF" id="Layer_1"/>
      </g>
    </g>
  </g>
</svg>
