<?xml version="1.0" encoding="UTF-8"?>
<!DOCTYPE svg PUBLIC "-//W3C//DTD SVG 1.1//EN" "http://www.w3.org/Graphics/SVG/1.1/DTD/svg11.dtd">
<svg version="1.1" xmlns="http://www.w3.org/2000/svg" xmlns:xlink="http://www.w3.org/1999/xlink" x="0" y="0" width="30" height="30" viewBox="0, 0, 30, 30">
  <g id="Layer_1" transform="translate(-401, -192.333)">
    <g>
      <g>
        <path d="M406.628,194.333 L425.372,194.333 C427.376,194.333 429,195.885 429,197.8 L429,216.867 C429,218.781 427.376,220.333 425.372,220.333 L406.628,220.333 C404.624,220.333 403,218.781 403,216.867 L403,197.8 C403,195.885 404.624,194.333 406.628,194.333 z" fill="#177991"/>
        <path d="M416,213.17 C417.33,213.17 418.419,212.215 418.419,211.048 C418.419,209.88 417.33,208.925 416,208.925 C414.67,208.925 413.581,209.88 413.581,211.048 C413.581,212.215 414.67,213.17 416,213.17 z M423.256,203.619 L422.047,203.619 L422.047,201.497 C422.047,198.568 419.338,196.19 416,196.19 C412.662,196.19 409.953,198.568 409.953,201.497 L412.251,201.497 C412.251,199.682 413.932,198.207 416,198.207 C418.068,198.207 419.749,199.682 419.749,201.497 L419.749,203.619 L408.744,203.619 C407.414,203.619 406.326,204.574 406.326,205.742 L406.326,216.354 C406.326,217.521 407.414,218.476 408.744,218.476 L423.256,218.476 C424.586,218.476 425.674,217.521 425.674,216.354 L425.674,205.742 C425.674,204.574 424.586,203.619 423.256,203.619 z M423.256,216.354 L408.744,216.354 L408.744,205.742 L423.256,205.742 L423.256,216.354 z M423.256,216.354" fill="#FFFFFF" id="Layer_1"/>
      </g>
    </g>
  </g>
</svg>
